<!-- filepath: c:\Users\Raf\hotandflustered2\hot-and-flustered\public\favicon.svg -->
<svg width="32" height="32" viewBox="0 0 32 32" xmlns="http://www.w3.org/2000/svg">
  <path d="M16 4c-6.627 0-12 5.373-12 12s5.373 12 12 12 12-5.373 12-12-5.373-12-12-12zm0 22c-5.514 0-10-4.486-10-10s4.486-10 10-10 10 4.486 10 10-4.486 10-10 10z" fill="#ff0000"/>
  <path d="M12 14c0-1.104.896-2 2-2s2 .896 2 2c0 1.104-.896 2-2 2s-2-.896-2-2zm6 0c0-1.104.896-2 2-2s2 .896 2 2c0 1.104-.896 2-2 2s-2-.896-2-2z" fill="#ff0000"/>
  <path d="M16 20c-2.209 0-4-1.791-4-4h8c0 2.209-1.791 4-4 4z" fill="#ff0000"/>
</svg>